<?xml version="1.0" encoding="UTF-8"?>
<svg width="251px" height="251px" viewBox="0 0 251 251" version="1.1" xmlns="http://www.w3.org/2000/svg" xmlns:xlink="http://www.w3.org/1999/xlink">
    <!-- Generator: Sketch 52.5 (67469) - http://www.bohemiancoding.com/sketch -->
    <title>Logo Copy 4</title>
    <desc>Created with Sketch.</desc>
    <g id="Page-1" stroke="none" stroke-width="1" fill="none" fill-rule="evenodd">
        <g id="Artboard-3" transform="translate(-312.000000, -115.000000)">
            <g id="Logo-Copy-4" transform="translate(312.000000, 115.000000)">
                <circle id="Oval-1" fill="#000000" cx="125.5" cy="125.5" r="125.5"></circle>
                <path d="M94,176 L94,79 L117.216935,79 L117.216935,87.9498667 L106.385708,87.9498667 L106.385708,167.050133 L117.216935,167.050133 L117.216935,176 L94,176 Z M139.082985,117.180624 C141.311822,113.250769 142.426224,107.569652 142.426224,100.137101 C142.426224,92.3628235 141.097514,86.3399847 138.440055,82.0684037 L139.983088,79.8899083 C144.612211,80.7442245 148.169724,82.0470371 150.655734,83.7983853 C153.141745,85.5497335 154.963363,87.429201 156.120644,89.436844 C157.277924,91.4444871 157.96371,93.3453121 158.178021,95.1393761 C158.392333,96.9334402 158.499487,98.3430407 158.499487,99.3682202 C158.499487,109.278288 152.584585,115.941854 140.754605,119.359119 L139.082985,117.180624 Z M139.983088,171.643009 C143.497792,166.94427 145.255118,160.024413 145.255118,150.883229 C145.255118,142.340067 143.754962,135.719216 140.754605,131.020477 L142.426224,128.841982 C145.255132,129.610866 147.676813,130.46517 149.691339,131.404917 C151.705864,132.344665 153.356036,133.284399 154.641904,134.224147 C160.213996,138.922886 163,144.732149 163,151.65211 C163,157.119734 161.371259,161.732972 158.113728,165.491963 C154.684748,169.421818 150.012834,172.070158 144.097843,173.437064 C143.669221,173.522496 143.219174,173.607926 142.747689,173.693358 C142.276205,173.778789 141.826158,173.86422 141.397535,173.949651 L139.983088,171.643009 Z" id="[B" fill="#FFFFFF"></path>
            </g>
        </g>
    </g>
</svg>